<svg xmlns="http://www.w3.org/2000/svg" xmlns:svg="http://www.w3.org/2000/svg" xmlns:xlink="http://www.w3.org/1999/xlink" id="svg2" width="744.094" height="1052.362"><defs id="defs4"><linearGradient id="linearGradient3286"><stop style="stop-color:#bc7df0;stop-opacity:1" id="stop3288" offset="0"/><stop style="stop-color:#be82f2;stop-opacity:0" id="stop3290" offset="1"/></linearGradient><linearGradient id="linearGradient3336"><stop id="stop3338" offset="0" style="stop-color:#6a6a6a;stop-opacity:1"/><stop id="stop3340" offset="1" style="stop-color:#fff;stop-opacity:1"/></linearGradient><linearGradient id="linearGradient3330"><stop id="stop3332" offset="0" style="stop-color:#dcdcdc;stop-opacity:1"/><stop id="stop3334" offset="1" style="stop-color:#ababab;stop-opacity:1"/></linearGradient><linearGradient id="linearGradient3324"><stop id="stop3326" offset="0" style="stop-color:#969696;stop-opacity:1"/><stop id="stop3328" offset="1" style="stop-color:#fdfdfd;stop-opacity:1"/></linearGradient><linearGradient id="linearGradient3191"><stop style="stop-color:#fff;stop-opacity:1" id="stop3193" offset="0"/><stop style="stop-color:#c7c7c7;stop-opacity:1" id="stop3195" offset="1"/></linearGradient><linearGradient id="linearGradient3183"><stop style="stop-color:#dcdcdc;stop-opacity:1" id="stop3185" offset="0"/><stop style="stop-color:#fdfdfd;stop-opacity:1" id="stop3187" offset="1"/></linearGradient><linearGradient id="linearGradient3175"><stop style="stop-color:#a7a7a7;stop-opacity:1" id="stop3177" offset="0"/><stop style="stop-color:#fff;stop-opacity:1" id="stop3179" offset="1"/></linearGradient><linearGradient id="linearGradient2429" x1="467.143" x2="200.714" y1="438.076" y2="340.934" gradientUnits="userSpaceOnUse" xlink:href="#linearGradient3175"/><linearGradient id="linearGradient2431" x1="232.143" x2="439.286" y1="221.648" y2="383.076" gradientUnits="userSpaceOnUse" xlink:href="#linearGradient3183"/><linearGradient id="linearGradient2433" x1="217.688" x2="454.588" y1="208.791" y2="398.076" gradientUnits="userSpaceOnUse" xlink:href="#linearGradient3191"/><linearGradient id="linearGradient3318" x1="467.143" x2="200.714" y1="438.076" y2="340.934" gradientUnits="userSpaceOnUse" xlink:href="#linearGradient3336"/><linearGradient id="linearGradient3320" x1="232.143" x2="373.281" y1="221.648" y2="340.934" gradientUnits="userSpaceOnUse" xlink:href="#linearGradient3324"/><linearGradient id="linearGradient3322" x1="217.688" x2="454.588" y1="208.791" y2="398.076" gradientUnits="userSpaceOnUse" xlink:href="#linearGradient3330"/><linearGradient id="linearGradient2455" x1="467.143" x2="200.714" y1="438.076" y2="340.934" gradientUnits="userSpaceOnUse" xlink:href="#linearGradient3175"/><linearGradient id="linearGradient2457" x1="232.143" x2="439.286" y1="221.648" y2="383.076" gradientUnits="userSpaceOnUse" xlink:href="#linearGradient3183"/><linearGradient id="linearGradient2459" x1="217.688" x2="454.588" y1="208.791" y2="398.076" gradientUnits="userSpaceOnUse" xlink:href="#linearGradient3191"/><linearGradient id="linearGradient2475" x1="467.143" x2="200.714" y1="438.076" y2="340.934" gradientUnits="userSpaceOnUse" xlink:href="#linearGradient3175"/><linearGradient id="linearGradient2477" x1="232.143" x2="439.286" y1="221.648" y2="383.076" gradientUnits="userSpaceOnUse" xlink:href="#linearGradient3183"/><linearGradient id="linearGradient2479" x1="217.688" x2="454.588" y1="208.791" y2="398.076" gradientUnits="userSpaceOnUse" xlink:href="#linearGradient3191"/><linearGradient id="linearGradient3377" x1="256.786" x2="256.786" y1="175.436" y2="56.994" gradientUnits="userSpaceOnUse" xlink:href="#linearGradient3286"/><linearGradient id="linearGradient3385" x1="467.143" x2="200.714" y1="438.076" y2="340.934" gradientUnits="userSpaceOnUse" xlink:href="#linearGradient3175"/><linearGradient id="linearGradient3387" x1="232.143" x2="439.286" y1="221.648" y2="383.076" gradientUnits="userSpaceOnUse" xlink:href="#linearGradient3183"/><linearGradient id="linearGradient3389" x1="217.688" x2="454.588" y1="208.791" y2="398.076" gradientUnits="userSpaceOnUse" xlink:href="#linearGradient3191"/><linearGradient id="linearGradient3394" x1="232.143" x2="439.286" y1="221.648" y2="383.076" gradientTransform="translate(44.45697,27.96107)" gradientUnits="userSpaceOnUse" xlink:href="#linearGradient3183"/><linearGradient id="linearGradient3396" x1="217.688" x2="454.588" y1="208.791" y2="398.076" gradientTransform="translate(44.45697,27.96107)" gradientUnits="userSpaceOnUse" xlink:href="#linearGradient3191"/><linearGradient id="linearGradient3399" x1="467.143" x2="200.714" y1="438.076" y2="340.934" gradientTransform="translate(44.45697,27.96107)" gradientUnits="userSpaceOnUse" xlink:href="#linearGradient3175"/><linearGradient id="linearGradient3412" x1="467.143" x2="200.714" y1="438.076" y2="340.934" gradientTransform="translate(44.45697,27.96107)" gradientUnits="userSpaceOnUse" xlink:href="#linearGradient3175"/><linearGradient id="linearGradient3414" x1="232.143" x2="439.286" y1="221.648" y2="383.076" gradientTransform="translate(44.45697,27.96107)" gradientUnits="userSpaceOnUse" xlink:href="#linearGradient3183"/><linearGradient id="linearGradient3416" x1="217.688" x2="454.588" y1="208.791" y2="398.076" gradientTransform="translate(44.45697,27.96107)" gradientUnits="userSpaceOnUse" xlink:href="#linearGradient3191"/><linearGradient id="linearGradient3435" x1="467.143" x2="200.714" y1="438.076" y2="340.934" gradientTransform="translate(44.45697,27.96107)" gradientUnits="userSpaceOnUse" xlink:href="#linearGradient3175"/><linearGradient id="linearGradient3437" x1="232.143" x2="439.286" y1="221.648" y2="383.076" gradientTransform="translate(44.45697,27.96107)" gradientUnits="userSpaceOnUse" xlink:href="#linearGradient3183"/><linearGradient id="linearGradient3439" x1="217.688" x2="454.588" y1="208.791" y2="398.076" gradientTransform="translate(44.45697,27.96107)" gradientUnits="userSpaceOnUse" xlink:href="#linearGradient3191"/><linearGradient id="linearGradient3331" x1="467.143" x2="200.714" y1="438.076" y2="340.934" gradientUnits="userSpaceOnUse" xlink:href="#linearGradient3336"/><linearGradient id="linearGradient3333" x1="232.143" x2="373.281" y1="221.648" y2="340.934" gradientUnits="userSpaceOnUse" xlink:href="#linearGradient3324"/><linearGradient id="linearGradient3335" x1="217.688" x2="454.588" y1="208.791" y2="398.076" gradientUnits="userSpaceOnUse" xlink:href="#linearGradient3330"/></defs><metadata id="metadata7"/><g id="layer1"><g id="g3308" transform="translate(48.477354,505.95845)"><path id="path3310" d="M 225.0625,196.59375 C 206.92857,196.42869 197.26934,204.62085 194.6875,233.0625 C 190.71972,276.77152 181.85269,351.64288 178.28125,423.78125 C 176.8187,453.03043 210.40625,453.06249 210.40625,453.0625 L 333.28125,451.65625 L 456.125,453.0625 C 456.12499,453.06249 489.7438,453.03043 488.28125,423.78125 C 484.70982,351.64288 475.81153,276.77152 471.84375,233.0625 C 469.17862,203.70337 458.97322,195.94197 439.6875,196.65625 C 420.40179,197.37054 419.63961,200.10331 333.28125,200.23214 C 246.92289,200.10331 246.12946,197.37054 226.84375,196.65625 C 226.24107,196.63393 225.64747,196.59907 225.0625,196.59375 z" style="fill:url(#linearGradient3318);fill-opacity:1;fill-rule:evenodd;stroke:#4d4d4d;stroke-width:11.39999962;stroke-linecap:butt;stroke-linejoin:miter;stroke-miterlimit:4;stroke-dasharray:none;stroke-opacity:1"/><path id="path3312" d="M 241.85266,208.07646 C 305.7568,211.75191 366.5179,212.02665 424.7098,208.07646 C 438.16408,208.07646 448.99551,218.90789 448.99551,232.36218 L 458.99551,376.64789 C 458.99551,390.10218 448.16408,400.93361 434.7098,400.93361 L 233.28123,400.93361 C 219.82694,400.93361 208.99551,390.10218 208.99551,376.64789 L 217.56694,232.36218 C 217.56694,218.90789 228.39837,208.07646 241.85266,208.07646 z" style="fill:url(#linearGradient3320);fill-opacity:1;fill-rule:evenodd;stroke:url(#linearGradient3322);stroke-width:6.9000001;stroke-linecap:butt;stroke-miterlimit:4;stroke-dashoffset:0;stroke-opacity:1"/><text id="text3314" x="285.312" y="379.852" transform="matrix(1,0,5.3216185e-2,1,0,0)" xml:space="preserve" style="font-size:150.94319153px;font-style:normal;font-variant:normal;font-weight:400;font-stretch:normal;text-align:start;line-height:125%;writing-mode:lr-tb;text-anchor:start;fill:#000;fill-opacity:.78571424;stroke:none;stroke-width:1px;stroke-linecap:butt;stroke-linejoin:miter;stroke-opacity:1;font-family:Lucida Grande;-inkscape-font-specification:Lucida Grande"><tspan id="tspan3316" x="285.312" y="379.852">⌘</tspan></text></g><g id="g2445" transform="translate(-708.66305,247.18289)"><path id="path2447" d="M 225.0625,196.59375 C 206.92857,196.42869 197.26934,204.62085 194.6875,233.0625 C 190.71972,276.77152 181.85269,351.64288 178.28125,423.78125 C 176.8187,453.03043 210.40625,453.06249 210.40625,453.0625 L 333.28125,451.65625 L 456.125,453.0625 C 456.12499,453.06249 489.7438,453.03043 488.28125,423.78125 C 484.70982,351.64288 475.81153,276.77152 471.84375,233.0625 C 469.17862,203.70337 458.97322,195.94197 439.6875,196.65625 C 420.40179,197.37054 419.63961,200.10331 333.28125,200.23214 C 246.92289,200.10331 246.12946,197.37054 226.84375,196.65625 C 226.24107,196.63393 225.64747,196.59907 225.0625,196.59375 z" style="fill:url(#linearGradient2455);fill-opacity:1;fill-rule:evenodd;stroke:#969696;stroke-width:5.9000001;stroke-linecap:butt;stroke-linejoin:miter;stroke-miterlimit:4;stroke-dasharray:none;stroke-opacity:1"/><path id="path2449" d="M 241.85266,208.07646 C 305.7568,211.75191 366.5179,212.02665 424.7098,208.07646 C 438.16408,208.07646 448.99551,218.90789 448.99551,232.36218 L 458.99551,376.64789 C 458.99551,390.10218 448.16408,400.93361 434.7098,400.93361 L 233.28123,400.93361 C 219.82694,400.93361 208.99551,390.10218 208.99551,376.64789 L 217.56694,232.36218 C 217.56694,218.90789 228.39837,208.07646 241.85266,208.07646 z" style="fill:url(#linearGradient2457);fill-opacity:1;fill-rule:evenodd;stroke:url(#linearGradient2459);stroke-width:6.9000001;stroke-linecap:butt;stroke-miterlimit:4;stroke-dashoffset:0;stroke-opacity:1"/><text id="text2451" x="324.716" y="380.661" transform="matrix(1,0,5.3216185e-2,1,0,0)" xml:space="preserve" style="font-size:106.13494873px;font-style:normal;font-variant:normal;font-weight:400;font-stretch:normal;text-align:start;line-height:125%;writing-mode:lr-tb;text-anchor:start;fill:#000;fill-opacity:.70329674;stroke:none;stroke-width:1px;stroke-linecap:butt;stroke-linejoin:miter;stroke-opacity:1;font-family:Lucida Grande;-inkscape-font-specification:Lucida Grande"><tspan id="tspan2453" x="324.716" y="380.661">⌘</tspan></text></g><g id="g2485" style="opacity:1"><path id="path2481" d="M 314.99999,122.71932 A 58.214287,58.214287 0 1 1 198.57142,122.71932 A 58.214287,58.214287 0 1 1 314.99999,122.71932 z" transform="matrix(4.1309715,0,0,-4.1312882,-2016.7828,1095.489)" style="fill:url(#linearGradient3377);fill-opacity:1;fill-rule:evenodd;stroke:none;stroke-width:5.90000009999999975;stroke-linecap:butt;stroke-miterlimit:4;stroke-dasharray:none;stroke-dashoffset:0;stroke-opacity:1"/><path id="path2483" d="M -956.00837,348.00013 C -1088.7542,348.00013 -1196.5084,455.76254 -1196.5084,588.51854 C -1196.5084,621.07002 -1189.9122,651.9863 -1178.1772,680.3106 C -1186.5456,656.17758 -1191.2155,630.33499 -1191.2155,603.36537 C -1191.2155,473.54578 -1085.818,370.96859 -956.00837,370.96859 C -826.1987,370.96859 -720.8012,473.54578 -720.8012,603.36537 C -720.8012,630.33499 -725.47109,656.17758 -733.83957,680.3106 C -722.10452,651.9863 -715.50837,621.07002 -715.50837,588.51854 C -715.50837,455.76254 -823.26253,348.00013 -956.00837,348.00013 z" style="fill:#7a3fb6;fill-opacity:1;fill-rule:evenodd;stroke:none;stroke-width:5.90000009999999975;stroke-linecap:butt;stroke-miterlimit:4;stroke-dasharray:none;stroke-dashoffset:0;stroke-opacity:1"/></g><g id="g3418" transform="translate(0,59.39697)"><g id="g3407" transform="matrix(0.6276622,0,0,0.6276622,1526.0464,-115.16008)"><use id="use3298" width="744.094" height="1052.362" x="0" y="0" transform="matrix(1.7056366,0,0,1.7056366,-203.63216,-416.68138)" xlink:href="#g2485" style="opacity:.50246307"/><use id="use3296" width="744.094" height="1052.362" x="0" y="0" transform="matrix(1.1587681,0,0,1.1587681,-726.44303,-143.6396)" xlink:href="#g2485" style="opacity:.66502464"/><use id="use3294" width="744.094" height="1052.362" x="0" y="0" transform="matrix(0.6883437,0,0,0.6883437,-1176.1727,102.79954)" xlink:href="#g2485"/></g><g id="g3401" transform="matrix(1.3887622,0,0,1.3887622,-149.82214,-188.15063)"><path style="fill:url(#linearGradient3435);fill-opacity:1;fill-rule:evenodd;stroke:#969696;stroke-width:4.24838734;stroke-linecap:butt;stroke-linejoin:miter;stroke-miterlimit:4;stroke-dasharray:none;stroke-opacity:1" id="path2383" d="M 269.51947,224.55482 C 251.38554,224.38976 241.72631,232.58192 239.14447,261.02357 C 235.17669,304.73259 226.30966,379.60395 222.73822,451.74232 C 221.27567,480.9915 254.86322,481.02356 254.86322,481.02357 L 377.73822,479.61732 L 500.58197,481.02357 C 500.58196,481.02356 534.20077,480.9915 532.73822,451.74232 C 529.16679,379.60395 520.2685,304.73259 516.30072,261.02357 C 513.63559,231.66444 503.43019,223.90304 484.14447,224.61732 C 464.85876,225.33161 464.09658,228.06438 377.73822,228.19321 C 291.37986,228.06438 290.58643,225.33161 271.30072,224.61732 C 270.69804,224.595 270.10444,224.56014 269.51947,224.55482 z"/><path style="fill:url(#linearGradient3437);fill-opacity:1;fill-rule:evenodd;stroke:url(#linearGradient3439);stroke-width:4.96845341;stroke-linecap:butt;stroke-miterlimit:4;stroke-dashoffset:0;stroke-opacity:1" id="rect3160" d="M 286.30963,236.03753 C 350.21377,239.71298 410.97487,239.98772 469.16677,236.03753 C 482.62105,236.03753 493.45248,246.86896 493.45248,260.32325 L 503.45248,404.60896 C 503.45248,418.06325 492.62105,428.89468 479.16677,428.89468 L 277.7382,428.89468 C 264.28391,428.89468 253.45248,418.06325 253.45248,404.60896 L 262.02391,260.32325 C 262.02391,246.86896 272.85534,236.03753 286.30963,236.03753 z"/><text style="font-size:106.13494873px;font-style:normal;font-variant:normal;font-weight:400;font-stretch:normal;text-align:start;line-height:125%;writing-mode:lr-tb;text-anchor:start;fill:#000;fill-opacity:.70329674;stroke:none;stroke-width:1px;stroke-linecap:butt;stroke-linejoin:miter;stroke-opacity:1;font-family:Lucida Grande;-inkscape-font-specification:Lucida Grande" id="text3163" x="367.685" y="408.623" transform="matrix(1,0,5.3216185e-2,1,0,0)" xml:space="preserve"><tspan id="tspan3165" x="367.685" y="408.623">⌘</tspan></text></g></g><g id="g3282" transform="translate(28.998861,879.8095)" style="opacity:.5"><path style="fill:url(#linearGradient3331);fill-opacity:1;fill-rule:evenodd;stroke:#4d4d4d;stroke-width:11.39999961999999911;stroke-linecap:butt;stroke-linejoin:miter;stroke-miterlimit:4;stroke-dasharray:none;stroke-opacity:1" id="path3284" d="M 225.0625,196.59375 C 206.92857,196.42869 197.26934,204.62085 194.6875,233.0625 C 190.71972,276.77152 181.85269,351.64288 178.28125,423.78125 C 176.8187,453.03043 210.40625,453.06249 210.40625,453.0625 L 333.28125,451.65625 L 456.125,453.0625 C 456.12499,453.06249 489.7438,453.03043 488.28125,423.78125 C 484.70982,351.64288 475.81153,276.77152 471.84375,233.0625 C 469.17862,203.70337 458.97322,195.94197 439.6875,196.65625 C 420.40179,197.37054 419.63961,200.10331 333.28125,200.23214 C 246.92289,200.10331 246.12946,197.37054 226.84375,196.65625 C 226.24107,196.63393 225.64747,196.59907 225.0625,196.59375 z"/><path style="fill:url(#linearGradient3333);fill-opacity:1;fill-rule:evenodd;stroke:url(#linearGradient3335);stroke-width:6.90000009999999975;stroke-linecap:butt;stroke-miterlimit:4;stroke-dashoffset:0;stroke-opacity:1" id="path3286" d="M 241.85266,208.07646 C 305.7568,211.75191 366.5179,212.02665 424.7098,208.07646 C 438.16408,208.07646 448.99551,218.90789 448.99551,232.36218 L 458.99551,376.64789 C 458.99551,390.10218 448.16408,400.93361 434.7098,400.93361 L 233.28123,400.93361 C 219.82694,400.93361 208.99551,390.10218 208.99551,376.64789 L 217.56694,232.36218 C 217.56694,218.90789 228.39837,208.07646 241.85266,208.07646 z"/><text style="font-size:150.94319153000000711px;font-style:normal;font-variant:normal;font-weight:400;font-stretch:normal;text-align:start;line-height:125%;writing-mode:lr-tb;text-anchor:start;fill:#000;fill-opacity:.78571424000000001;stroke:none;stroke-width:1px;stroke-linecap:butt;stroke-linejoin:miter;stroke-opacity:1;font-family:Lucida Grande;-inkscape-font-specification:Lucida Grande" id="text3288" x="285.312" y="379.852" transform="matrix(1,0,5.3216185e-2,1,0,0)" xml:space="preserve"><tspan id="tspan3290" x="285.312" y="379.852">⌘</tspan></text></g></g></svg>